<svg version="1.2" xmlns="http://www.w3.org/2000/svg" viewBox="0 0 456 456" width="456" height="456">
	<title>icon_logo_adobe_express-svg</title>
	<style>
		.s0 { fill: #dbe8c5 } 
		.s1 { fill: #00564e } 
		.s2 { fill: #669a8d } 
		.s3 { fill: #cdded6 } 
		.s4 { fill: #deb62b } 
		.s5 { fill: #d9e6c4 } 
		.s6 { fill: #d8e6c3 } 
		.s7 { fill: #9ebfa4 } 
	</style>
	<path id="Layer" fill-rule="evenodd" class="s0" d="m92.6 233.5c0-3.5 0-6.9 0.1-10.5 0.1-1.2 0.3-2.1 0.3-3.1 0.2-2.2 0.3-4.5 0.5-6.7 0.4-3 0.8-6.1 1.4-9.1q1.4-8 3.8-15.7 3.3-10.8 8.4-21c1.1-2.3 2.4-4.6 3.7-6.8 2.1-3.8 4.4-7.4 7-10.9q3-4 6.2-8c1.6-2 3.3-4 5.1-5.8 3.2-3.4 6.5-6.8 10.2-9.9 1.9-1.6 3.8-3.2 5.8-4.8 3.5-2.7 7.2-5.4 11-7.7 3.3-2 6.6-3.9 9.9-5.7 3.1-1.6 6.2-3 9.4-4.4 6.1-2.7 12.4-4.7 18.8-6.4 4.9-1.3 9.7-2.3 14.6-2.9 2.9-0.4 5.8-0.8 8.6-1 2.2-0.2 4.3-0.2 6.5-0.3 0.3 0 0.7-0.1 1-0.2 2.2 0 4.4 0 6.8 0.1 0.3 0 0.5 0.1 0.6 0.1q4.1 0 8.2 0.4 3.7 0.5 7.5 0.9c3.9 0.5 7.7 1.3 11.5 2.2q7.6 1.7 15 4.4 6.5 2.4 12.7 5.3 2.9 1.5 5.8 3.1c2.8 1.6 5.6 3.2 8.3 4.9 3.9 2.4 7.7 5 11.2 7.9 2.8 2.3 5.6 4.6 8.2 7.1 2.9 2.7 5.6 5.7 8.4 8.5 1.3 1.4 2.6 2.9 3.8 4.4q3.1 3.9 6.1 7.9 5.3 7.4 9.5 15.5c1.7 3.3 3.2 6.7 4.7 10 2.6 5.8 4.6 11.8 6.2 17.9 1.6 6.1 2.9 12.4 3.6 18.8 0.3 3 0.7 6.1 0.6 9.1 0 0.3 0.2 0.7 0.2 1 0 4.1 0 8.2 0 12.5-0.1 0.5-0.2 0.9-0.2 1.3 0 1.1 0.1 2.2 0 3.3q-0.4 3.6-0.9 7.1c-0.3 2.7-0.7 5.3-1.2 8q-0.9 4.5-2.1 9.1-2 7.7-5 15.1c-1.8 4.4-3.8 8.8-6.1 13.1-2.1 4-4.4 8-7 11.8-2.6 3.9-5.4 7.8-8.5 11.4-2 2.3-3.9 4.6-6 6.8-3.8 4.1-7.9 7.9-12.2 11.4-2.8 2.2-5.7 4.5-8.6 6.5-4 2.8-8 5.4-12.2 7.6-4.7 2.5-9.5 4.9-14.4 6.9-4.1 1.6-8.2 3.2-12.4 4.3-3.5 1-7 1.9-10.5 2.7-3.2 0.7-6.4 1.2-9.6 1.7-2.1 0.3-4.2 0.5-6.3 0.7-1.5 0.1-3 0.1-4.4 0.2-0.2 0.1-0.3 0.2-0.5 0.2-0.7 0-1.5 0-2.3 0-0.3-0.3-0.4-0.5-0.5-0.6q-7.7-8.8-15.3-17.6c-0.1-0.2-0.2-0.4-0.3-0.7 0.3 0.1 0.5 0.2 0.7 0.3q0.4 0.2 0.8 0.5 5.6 3.4 11.8 5.4c9.5 3.1 19.2 3.7 29.1 2.8 7.1-0.7 13.9-2.3 20.7-4.5 0.2-0.1 0.5-0.3 0.9-0.4-0.4-0.2-0.6-0.4-0.9-0.6-7.5-3.7-14.6-8.1-21.4-13-13.3-9.7-25-21.1-35.2-34q-6.5-8.2-12.1-17c-0.2-0.3-0.3-0.7-0.4-1q0 0 0.1 0c18.5 12.2 40 11.2 54 7.4-0.5-0.2-0.8-0.4-1.1-0.6-6.7-3.2-13.1-6.7-19.3-10.7-12.4-8-23.2-17.7-31.8-29.7-1.8-2.5-3.4-5.1-5-7.6-0.2-0.3-0.6-0.6-0.4-1 0.2 0 0.2 0 0.3 0q0.4 0.3 0.8 0.6 8.1 6.7 17.9 10.3c4 1.4 8 2.4 12.2 2.3 3-0.1 5.8-0.8 8.4-2.4 0.3-0.3 0.6-0.5 0.9-0.7-0.1-0.2-0.1-0.2-0.2-0.3q-0.2-0.2-0.4-0.3c-14.4-9.5-26.8-21.2-37.5-34.6-9.2-11.4-17-23.7-23.9-36.5-7-12.8-13.1-26-18.9-39.5-0.2 0.4-0.4 0.7-0.5 1.1-1.7 3.5-3.2 7.1-4.9 10.7-6.1 13.4-12.8 26.6-20.4 39.3-6.6 11-13.9 21.4-22.3 31-7.3 8.2-15.3 15.6-24.4 21.7q-0.6 0.4-1.2 0.6c-0.2-2.4-0.4-4.8-0.7-7.1-0.1-1.2-0.1-2.4-0.2-3.5 0-0.2-0.1-0.3-0.2-0.4zm118.7 49.9q0 0 0 0 0 0 0 0zm39.3-112.9q0.5-0.4 1.1-0.7 7.4-5.1 14.9-10.2 0.5-0.4 1.1-0.7c0.3 0.2 0.6 0.4 0.9 0.7q5.7 4.7 11.3 9.4c1.3 1.1 2.6 2.1 4 3.2 0 0-0.1 0 0-0.2q-0.1-0.4-0.2-0.9-2.3-7.7-4.6-15.4c-0.3-1.2-0.7-2.4-1.1-3.7 5.9-3.7 11.8-7.4 17.6-11.2-0.4-0.2-0.7-0.2-1.1-0.2q-6.6-0.2-13.3-0.3-2.9-0.1-5.9-0.2c-0.2 0-0.3-0.1-0.6-0.1q-2.5-10.1-5.1-20.2-0.1 0-0.2 0c-2.3 6.5-4.6 13-7 19.7q-3.6-0.3-7-0.5c-2.3-0.1-4.6-0.3-6.9-0.4-2.3-0.2-4.6-0.4-7-0.4 0.3 0.4 0.6 0.6 0.9 0.8q7.4 5.7 14.8 11.4c0.8 0.7 0.8 0.7 0.4 1.7q-2.6 6.6-5.3 13.3c-0.7 1.6-1.3 3.3-2 5 0.1 0 0.1 0.1 0.3 0.1z"/>
	<path id="Layer" fill-rule="evenodd" class="s1" d="m93.8 244.6c0.3-0.2 0.7-0.4 1.1-0.7 9.1-6.1 17.1-13.5 24.4-21.7 8.4-9.6 15.7-20 22.3-31 7.6-12.7 14.3-25.9 20.4-39.3 1.7-3.6 3.2-7.2 4.9-10.7 0.1-0.4 0.3-0.7 0.5-1.1 5.8 13.5 11.9 26.7 18.9 39.5 6.9 12.8 14.7 25.1 23.9 36.5 10.7 13.4 23.1 25.1 37.5 34.6q0.2 0.1 0.4 0.3c0.1 0.1 0.1 0.1 0.2 0.3-0.3 0.2-0.6 0.4-0.9 0.7-2.6 1.6-5.4 2.3-8.4 2.4-4.2 0.1-8.2-0.9-12.2-2.3q-9.8-3.6-17.9-10.3-0.4-0.3-0.8-0.6c-0.1 0-0.1 0-0.3 0-0.2 0.4 0.2 0.7 0.4 1 1.6 2.5 3.2 5.1 5 7.6 8.6 12 19.4 21.7 31.8 29.7 6.2 4 12.6 7.5 19.3 10.7 0.3 0.2 0.6 0.4 1.1 0.6-14 3.8-35.5 4.8-54-7.5-0.2 0-0.2 0-0.3 0 0 0.1 0.1 0.1 0.1 0.1q0 0 0.1 0c0.1 0.3 0.2 0.7 0.4 1q5.6 8.8 12.1 17c10.2 12.9 21.9 24.3 35.2 34 6.8 4.9 13.9 9.3 21.4 13 0.3 0.2 0.5 0.4 0.9 0.6-0.4 0.1-0.7 0.3-0.9 0.4-6.8 2.2-13.6 3.8-20.7 4.5-9.9 0.9-19.6 0.3-29.1-2.8q-6.2-2-11.8-5.4-0.4-0.3-0.8-0.5c-0.2-0.1-0.4-0.2-0.7-0.3 0.1 0.3 0.2 0.5 0.3 0.7q7.6 8.8 15.3 17.6c0.1 0.1 0.2 0.3 0.4 0.6-2.7 0-5.5 0-8.4 0-1.3-0.1-2.4-0.1-3.6-0.2-0.7 0-1.3 0-2 0-1.1-0.1-2.1-0.2-3.1-0.3-6.4-0.5-12.7-1.5-18.9-3-24.4-5.8-45.6-17.5-63.6-34.8-2.2-2.2-4.3-4.4-6.4-6.7-4.8-5.3-9.1-11-13-17.1-0.7-1.1-1.4-2.4-2-3.6 0.7-0.8 1.3-1.7 1.9-2.5q4.2-5.1 8.3-10.3c0.5-0.6 0.9-1.3 1.4-1.9q0-0.1 0-0.1 0 0-0.1 0c0 0 0 0.1 0 0.1q-0.4 0-0.7 0.2c-4.5 2.7-9.4 4.6-14.5 5.8-0.4 0.1-0.8 0.1-1.3 0.1-0.9-1.7-1.7-3.4-2.5-5-2-4-3.5-8.1-4.9-12.3-0.1-0.2 0-0.4 0-0.7 6.9-6.3 13.5-12.8 19.6-19.8 2.7-3.2 5.4-6.5 7.7-10.1q0.3-0.5 0.5-0.9c-0.2-0.1-0.4 0-0.5 0.1-4.7 4.1-10 7.6-15.5 10.6-4.1 2.2-8.2 4.1-12.7 5.3-0.9 0.2-1.8 0.4-2.7 0.6-0.4-1.2-0.7-2.2-1-3.3-0.1-0.5-0.2-0.9-0.3-1.3q-0.8-3.5-1.7-7c-0.1-0.5 0-0.9 0.5-1.1zm113.3-4.2q0.1 0 0.2 0-0.1 0-0.2-0.1 0 0 0 0.1zm0-0.1q0 0 0 0 0 0 0 0zm0.5 0.9q0.1 0 0.3-0.1-0.2-0.2-0.4-0.4c0 0.1-0.1 0.2 0.1 0.5z"/>
	<path id="Layer" class="s2" d="m221.4 363.6c1.1 0.1 2.2 0.1 3.4 0.2q-1.5 0.1-3.3 0c-0.1-0.1-0.1-0.2-0.1-0.2z"/>
	<path id="Layer" class="s3" d="m221.3 363.6c0.1 0 0.1 0.1 0.1 0.2-0.6 0-1.2 0-1.9 0-0.1 0-0.1-0.1-0.1-0.1 0.6-0.1 1.2-0.1 1.9-0.1z"/>
	<path id="Layer" class="s4" d="m283.8 172.2c-1.3-1.1-2.6-2.1-3.9-3.2q-5.6-4.7-11.3-9.4c-0.3-0.3-0.6-0.5-0.9-0.7q-0.6 0.3-1.1 0.7-7.5 5.1-14.9 10.2c-0.4 0.2-0.7 0.4-1.2 0.6-0.1 0-0.1 0-0.1 0 0.6-1.7 1.2-3.4 1.9-5q2.7-6.7 5.3-13.3c0.4-1 0.4-1-0.4-1.7q-7.4-5.7-14.8-11.4c-0.3-0.2-0.6-0.4-0.9-0.8 2.4 0 4.7 0.2 7 0.4 2.3 0.1 4.6 0.3 6.9 0.4q3.4 0.2 7 0.5c2.4-6.7 4.7-13.2 7-19.7q0.1 0 0.2 0 2.6 10.1 5.1 20.2c0.3 0 0.4 0.1 0.6 0.1q3 0.1 5.9 0.2 6.7 0.1 13.3 0.3c0.4 0 0.7 0 1.1 0.2-5.8 3.8-11.7 7.5-17.6 11.2 0.4 1.3 0.8 2.5 1.1 3.7q2.3 7.7 4.6 15.4c0.1 0.3 0.1 0.6 0.1 1 0 0.1 0 0.1 0 0.1z"/>
	<path id="Layer" class="s4" d="m283.8 172.2c0 0 0.1 0 0.1 0 0 0 0 0-0.1 0q0 0 0 0z"/>
	<path id="Layer" class="s4" d="m250.5 170.5q-0.1 0-0.1-0.1c0 0 0 0 0.1 0.1z"/>
	<path id="Layer" class="s5" d="m99.9 271.5c-0.4-0.9-0.7-1.7-1-2.6-1.4-4.6-2.6-9.3-3.6-14 0-0.2 0-0.4 0-0.8q0.5 1.5 1 3.2c0.9-0.2 1.8-0.4 2.7-0.6 4.5-1.2 8.6-3.1 12.7-5.3 5.5-3 10.8-6.5 15.5-10.6 0.1-0.1 0.3-0.2 0.5-0.1q-0.2 0.4-0.5 0.9c-2.3 3.6-5 6.9-7.7 10.1-6.1 7-12.7 13.5-19.6 19.8z"/>
	<path id="Layer" class="s6" d="m112.3 298.1c-0.6-0.7-1.2-1.5-1.6-2.3-1.2-2-2.2-4.1-3.4-6.2 0.5-0.1 0.9-0.1 1.3-0.2 5.1-1.2 10-3.1 14.5-5.8q0.3-0.2 0.7-0.2c0 0 0 0 0 0-0.4 0.6-0.8 1.3-1.3 1.9q-4.1 5.2-8.3 10.3c-0.6 0.8-1.2 1.7-1.9 2.5z"/>
	<path id="Layer" class="s7" d="m207.5 241.1c-0.1-0.2 0-0.3 0-0.4q0.2 0.2 0.4 0.4c-0.1 0.1-0.2 0.1-0.4 0z"/>
	<path id="Layer" class="s7" d="m207.1 240.3c0 0 0 0 0 0q0 0 0 0z"/>
	<path id="Layer" class="s7" d="m207.1 240.3q0.1 0.1 0.2 0.1-0.1 0-0.2-0.1c0 0 0 0 0 0z"/>
	<path id="Layer" class="s6" d="m123.8 283.4q0-0.1 0-0.1 0.1 0 0.1 0 0 0 0 0.1-0.1 0-0.1 0z"/>
	<path id="Layer" class="s0" d="m211.3 283.4q-0.1 0-0.1 0c0 0-0.1 0-0.1-0.1q0.1 0 0.2 0c0 0.1 0 0.1 0 0.1z"/>
</svg>